<svg width="20" height="20" viewBox="0 0 24 24" fill="none" xmlns="http://www.w3.org/2000/svg"><path d="M16 4C16.55 4 17 4.45 17 5S16.55 6 16 6H16.5C17.33 6 18 6.67 18 7.5S17.33 9 16.5 9H15V10H16.5C17.33 10 18 10.67 18 11.5S17.33 13 16.5 13H16C16.55 13 17 13.45 17 14S16.55 15 16 15H8C7.45 15 7 14.55 7 14S7.45 13 8 13H8.5C7.67 13 7 12.33 7 11.5S7.67 10 8.5 10H10V9H8.5C7.67 9 7 8.33 7 7.5S7.67 6 8.5 6H8C7.45 6 7 5.55 7 5S7.45 4 8 4H16ZM12 8C10.9 8 10 8.9 10 10S10.9 12 12 12S14 11.1 14 10S13.1 8 12 8Z" fill="currentColor"/></svg> 
